<svg xmlns="http://www.w3.org/2000/svg" viewBox="0 0 32 32">
  <rect width="32" height="32" rx="6" fill="#0a0a0b"/>
  <path d="M5 21 L 5 17 Q 5 16 6 16 L 10 16 L 13 11 Q 14 10 15 10 L 21 10 Q 22 10 23 11 L 26 16 L 27 16 Q 28 16 28 17 L 28 21 L 23.5 21 A 3 3 0 0 0 17.5 21 L 14.5 21 A 3 3 0 0 0 8.5 21 Z" fill="#34d399"/>
  <circle cx="11.5" cy="22" r="2.5" fill="#0a0a0b"/>
  <circle cx="20.5" cy="22" r="2.5" fill="#0a0a0b"/>
  <circle cx="11.5" cy="22" r="1" fill="#34d399"/>
  <circle cx="20.5" cy="22" r="1" fill="#34d399"/>
</svg>
